<svg version="1.1" xmlns="http://www.w3.org/2000/svg" viewBox="0 0 68 14.2" overflow="visible">
<path fill="#1db898" d="M1.3,6.5c0.4-0.4,0.9-0.8,1.5-1c0.6-0.2,1.1-0.3,1.7-0.3c0.6,0,1.1,0.1,1.7,0.3c0.6,0.2,1,0.5,1.5,1l0.6,0.6 L7,8.4L6.4,7.7C6.1,7.5,5.8,7.3,5.5,7.1C5.1,7,4.8,6.9,4.5,6.9c-0.3,0-0.7,0.1-1,0.2C3.1,7.3,2.8,7.5,2.5,7.7C2.3,8,2.1,8.3,2,8.6 C1.8,9,1.8,9.3,1.8,9.6s0.1,0.7,0.2,1s0.3,0.6,0.6,0.9c0.5,0.5,1.2,0.8,1.9,0.8c0.4,0,0.7-0.1,1-0.2c0.3-0.1,0.6-0.3,0.9-0.6L7,10.9 l1.2,1.3l-0.6,0.6c-0.4,0.4-0.9,0.8-1.5,1C5.6,14,5,14.1,4.5,14.1c-0.6,0-1.1-0.1-1.7-0.3c-0.6-0.2-1-0.5-1.5-1 c-0.4-0.4-0.8-0.9-1-1.5C0.1,10.8,0,10.2,0,9.7S0.1,8.5,0.3,8C0.5,7.4,0.9,6.9,1.3,6.5"/>
<path fill="#1db898" d="M10.2,9.7c0,0.4,0.1,0.7,0.2,1.1c0.1,0.3,0.3,0.6,0.6,0.9c0.2,0.2,0.5,0.4,0.9,0.6c0.3,0.1,0.7,0.2,1.1,0.2 c0.4,0,0.7-0.1,1.1-0.2c0.3-0.1,0.6-0.3,0.9-0.6c0.2-0.2,0.4-0.5,0.6-0.9c0.1-0.3,0.2-0.7,0.2-1.1c0-0.4-0.1-0.7-0.2-1 c-0.1-0.3-0.3-0.6-0.6-0.9c-0.2-0.2-0.5-0.4-0.9-0.6C13.6,7.1,13.3,7,12.9,7c-0.4,0-0.7,0.1-1.1,0.2c-0.3,0.1-0.6,0.3-0.9,0.6 c-0.2,0.2-0.4,0.5-0.6,0.9C10.3,9,10.2,9.3,10.2,9.7 M8.5,9.7c0-0.6,0.1-1.2,0.3-1.7c0.2-0.5,0.6-1,1-1.4c0.4-0.4,0.9-0.7,1.4-1 s1.1-0.3,1.7-0.3c0.6,0,1.2,0.1,1.7,0.3c0.5,0.2,1,0.6,1.4,1c0.4,0.4,0.7,0.9,1,1.4c0.2,0.5,0.3,1.1,0.3,1.7c0,0.6-0.1,1.2-0.3,1.7 c-0.2,0.5-0.6,1-1,1.4c-0.4,0.4-0.9,0.7-1.4,1c-0.5,0.2-1.1,0.3-1.7,0.3c-0.6,0-1.2-0.1-1.7-0.3s-1-0.6-1.4-1 c-0.4-0.4-0.7-0.9-1-1.4C8.6,10.9,8.5,10.3,8.5,9.7"/>
<path fill="#1db898" d="M27.8,7.9c0.2-0.5,0.6-1,1-1.4c0.4-0.4,0.9-0.7,1.4-1c0.5-0.2,1.1-0.4,1.7-0.4c0.6,0,1.2,0.1,1.7,0.4 c0.5,0.2,1,0.6,1.4,1c0.4,0.4,0.7,0.9,1,1.4c0.2,0.5,0.3,1.1,0.3,1.7v4.5h-1.8V9.7c0-0.4-0.1-0.7-0.2-1c-0.1-0.3-0.3-0.6-0.6-0.9 c-0.2-0.2-0.5-0.4-0.9-0.6C32.7,7,32.3,7,31.9,7c-0.4,0-0.7,0.1-1,0.2c-0.3,0.1-0.6,0.3-0.9,0.6c-0.2,0.2-0.4,0.5-0.6,0.9 c-0.1,0.3-0.2,0.7-0.2,1v4.5h-1.8V9.7C27.5,9,27.6,8.5,27.8,7.9"/>
<path fill="#1db898" d="M42.4,12.4v1.8h-0.9c-0.6,0-1.2-0.1-1.7-0.4c-0.5-0.2-1-0.6-1.4-1c-0.4-0.4-0.7-0.9-1-1.4 c-0.2-0.5-0.3-1.1-0.3-1.7V0.2h1.8v5h3.6V7h-3.6v2.7c0,0.4,0.1,0.7,0.2,1.1c0.1,0.3,0.3,0.6,0.6,0.9c0.2,0.2,0.5,0.4,0.9,0.6 c0.3,0.1,0.7,0.2,1.1,0.2H42.4z"/>
<path fill="#606060" d="M48.8,5.2v1.8h-0.9c-0.4,0-0.7,0.1-1,0.2c-0.3,0.1-0.6,0.3-0.9,0.6c-0.2,0.2-0.4,0.5-0.6,0.9 c-0.1,0.3-0.2,0.7-0.2,1v4.5h-1.8V9.6c0-0.6,0.1-1.2,0.3-1.7c0.2-0.5,0.6-1,1-1.4c0.4-0.4,0.9-0.7,1.4-1c0.5-0.2,1.1-0.3,1.7-0.3 H48.8z"/>
<path fill="#606060" d="M50.6,9.7c0,0.4,0.1,0.7,0.2,1.1c0.1,0.3,0.3,0.6,0.6,0.9c0.2,0.2,0.5,0.4,0.9,0.6c0.3,0.1,0.7,0.2,1.1,0.2 c0.4,0,0.7-0.1,1.1-0.2c0.3-0.1,0.6-0.3,0.9-0.6c0.2-0.2,0.4-0.5,0.6-0.9c0.1-0.3,0.2-0.7,0.2-1.1c0-0.4-0.1-0.7-0.2-1 c-0.1-0.3-0.3-0.6-0.6-0.9c-0.2-0.2-0.5-0.4-0.9-0.6C54,7.1,53.7,7,53.3,7c-0.4,0-0.7,0.1-1.1,0.2c-0.3,0.1-0.6,0.3-0.9,0.6 c-0.2,0.2-0.4,0.5-0.6,0.9C50.7,9,50.6,9.3,50.6,9.7 M48.8,9.7c0-0.6,0.1-1.2,0.3-1.7c0.2-0.5,0.6-1,1-1.4c0.4-0.4,0.9-0.7,1.4-1 c0.5-0.2,1.1-0.3,1.7-0.3c0.6,0,1.2,0.1,1.7,0.3c0.5,0.2,1,0.6,1.4,1c0.4,0.4,0.7,0.9,1,1.4c0.2,0.5,0.3,1.1,0.3,1.7 c0,0.6-0.1,1.2-0.3,1.7c-0.2,0.5-0.6,1-1,1.4c-0.4,0.4-0.9,0.7-1.4,1c-0.5,0.2-1.1,0.3-1.7,0.3c-0.6,0-1.2-0.1-1.7-0.3 c-0.5-0.2-1-0.6-1.4-1c-0.4-0.4-0.7-0.9-1-1.4C49,10.9,48.8,10.3,48.8,9.7"/>
<rect x="58.8" y="0.2" fill="#606060" width="1.8" height="13.9"/>
<rect x="61.9" y="0.2" fill="#606060" width="1.8" height="13.9"/>
<path fill="#1db898" d="M25.2,5.2v4.5c0,0.4-0.1,0.7-0.2,1.1c-0.1,0.3-0.3,0.6-0.6,0.9c-0.2,0.2-0.5,0.4-0.9,0.6 c-0.3,0.1-0.7,0.2-1.1,0.2c-0.4,0-0.7-0.1-1-0.2c-0.3-0.1-0.6-0.3-0.9-0.6c-0.2-0.2-0.4-0.5-0.6-0.9c-0.1-0.3-0.2-0.7-0.2-1.1V5.2 L18,7v2.7c0,0.6,0.1,1.2,0.3,1.7c0.2,0.5,0.6,1,1,1.4c0.4,0.4,0.9,0.7,1.4,1c0.5,0.2,1.1,0.3,1.7,0.3c0.6,0,1.2-0.1,1.7-0.3 c0.5-0.2,1-0.6,1.4-1c0.4-0.4,0.7-0.9,1-1.4c0.2-0.5,0.3-1.1,0.3-1.7V5.2H25.2z"/>
<path fill="#1db898" d="M12.9,2.4c-1.6,0-3.2,0.5-4.4,1.5l1,1c1-0.7,2.1-1.1,3.4-1.1c1.3,0,2.4,0.4,3.4,1.1l1-1 C16.1,2.9,14.6,2.4,12.9,2.4"/>
<path fill="#1db898" d="M12.9,1.4c1.9,0,3.7,0.7,5.1,1.8l1-1C17.3,0.8,15.2,0,12.9,0c-2.3,0-4.4,0.8-6.1,2.2l1,1 C9.2,2,11,1.4,12.9,1.4"/>
<path fill="#606060" d="M66.4,1.5c0.2,0,0.4,0,0.4-0.3C66.8,1,66.6,1,66.4,1h-0.4v0.5H66.4z M66.1,1.7v0.6c0,0.1,0,0.1-0.1,0.1 c-0.1,0-0.1-0.1-0.1-0.1V0.8c0-0.1,0-0.1,0.1-0.1h0.6c0.4,0,0.7,0.1,0.7,0.5c0,0.3-0.2,0.5-0.5,0.5l0.4,0.6c0,0,0,0.1,0,0.1 c0,0-0.1,0.1-0.2,0.1c-0.1,0-0.1,0-0.2-0.1l-0.4-0.7H66.1z M67.7,1.6c0-0.7-0.6-1.3-1.2-1.3c-0.7,0-1.2,0.6-1.2,1.3 c0,0.7,0.6,1.3,1.2,1.3C67.1,2.8,67.7,2.3,67.7,1.6 M64.8,1.6c0-0.9,0.7-1.6,1.6-1.6C67.3,0,68,0.7,68,1.6c0,0.9-0.7,1.6-1.6,1.6 C65.6,3.2,64.8,2.5,64.8,1.6"/>
</svg>
