<svg xmlns="http://www.w3.org/2000/svg" viewBox="1030 -5 340 230">
  <!-- Dot -->
  <path d="m1114.1 105.7c0 18.3 14.8 33.1 33.1 33.1s33.1-14.8 33.1-33.1-14.8-33.1-33.1-33.1-33.1 14.8-33.1 33.1" fill="#4e4e56"/>
  <!-- Green C with tail -->
  <path d="m1147.1 211.1c-56.8 0-105.5-47.3-105.5-105.6 0-29.7 10-55.7 29.4-75.3 19.1-19.2 45.8-30.2 73.2-30.2 51.9 0 81 32 82.2 33.3l-24.4 21.9c-.8-.9-21.1-22.5-57.8-22.5-18.7 0-37 7.5-50 20.6-13.1 13.2-20 31.2-19.9 52 .3 40.3 30.3 72.7 72.8 73 18.1 0 34.3-9.7 50.7-22.7 11.6-9.2 24.9-20.2 36.1-26 11.9-6 32.5-9.7 50.5-10.4h81.6l12.5 32.7h-94.4c-.5 0-19.7-.7-39.3 8.5-7.9 3.7-16.8 12.4-26.7 20.2-18 14.6-41.4 30.5-71 30.5z" fill="#6cab36"/>
</svg>
